<svg xmlns="http://www.w3.org/2000/svg" viewBox="0 0 488 257" width="488" height="257"><title>faro.</title><rect width="488" height="257" fill="#fff"/><path transform="translate(67.6 199.1)" fill="#111" d="M41.87923583984375 -20.119604492187502Q41.87923583984375 -16.55965576171875 42.95923461914063 -14.619677734375001Q44.0392333984375 -12.67969970703125 46.839245605468754 -12.37969970703125L54.67928466796875 -11.579699707031251Q57.63922119140625 -11.299707031250001 58.96919555664063 -9.729742431640627Q60.299169921875006 -8.159777832031251 60.299169921875006 -5.699841308593751Q60.299169921875006 0.0 54.19930419921875 0.0H10.319873046875001Q7.43992919921875 0.0 5.829968261718751 -1.4699584960937502Q4.22000732421875 -2.9399169921875004 4.22000732421875 -5.579846191406251Q4.22000732421875 -7.97978515625 5.3999877929687505 -9.439752197265625Q6.579968261718751 -10.89971923828125 8.999926757812501 -11.759692382812501L12.08001708984375 -12.49969482421875Q14.5400390625 -13.1796875 15.7600341796875 -14.989666748046876Q16.980029296875 -16.79964599609375 16.980029296875 -20.359594726562502V-67.8601806640625Q16.980029296875 -70.52020263671875 15.910028076171875 -71.7802001953125Q14.84002685546875 -73.04019775390626 11.64002685546875 -74.340185546875L8.53995361328125 -75.4802001953125Q5.1599975585937505 -77.0001708984375 3.7800231933593755 -78.67012939453124Q2.400048828125 -80.340087890625 2.400048828125 -82.58002929687501Q2.400048828125 -84.89996337890625 3.9200073242187505 -86.32992553710938Q5.4399658203125005 -87.7598876953125 8.219897460937501 -87.7598876953125H23.919836425781252L17.16002197265625 -83.23984375V-86.75985107421876Q17.16002197265625 -90.2399169921875 15.620025634765625 -93.28998413085938Q14.080029296875 -96.34005126953126 12.090032958984375 -99.69010009765626Q10.10003662109375 -103.04014892578125 8.560040283203126 -107.22016601562501Q7.0200439453125005 -111.40018310546876 7.0200439453125005 -117.14014892578126Q7.0200439453125005 -128.44011230468752 15.169946289062501 -135.75006713867188Q23.3198486328125 -143.06002197265624 38.45965576171875 -143.06002197265624Q47.67950439453125 -143.06002197265624 53.989404296875 -140.04005737304686Q60.29930419921875 -137.0200927734375 63.52925415039063 -132.06015014648438Q66.7592041015625 -127.10020751953125 66.7592041015625 -121.32027587890626Q66.7592041015625 -115.40037841796875 63.77927856445313 -112.29043579101562Q60.799353027343756 -109.18049316406251 56.099462890625006 -109.18049316406251Q50.77960205078125 -109.18049316406251 47.78968505859375 -112.51041870117189Q44.79976806640625 -115.84034423828126 44.79976806640625 -121.58022460937501V-124.92019042968751Q44.79976806640625 -128.9002197265625 42.779754638671875 -131.09024047851562Q40.759741210937506 -133.28026123046877 36.71968994140625 -133.28026123046877Q31.67958984375 -133.28026123046877 29.06953125 -130.11019287109377Q26.45947265625 -126.94012451171875 26.45947265625 -121.44000244140625Q26.45947265625 -117.91998291015625 27.829455566406253 -114.55996704101562Q29.199438476562502 -111.199951171875 31.219415283203126 -107.92993774414063Q33.239392089843754 -104.65992431640626 35.259368896484375 -101.34991455078125Q37.279345703125 -98.03990478515625 38.649328613281256 -94.60989990234376Q40.0193115234375 -91.17989501953126 40.0193115234375 -87.539892578125V-82.45998535156251L35.9794189453125 -87.7598876953125H57.01937255859375Q60.079321289062506 -87.7598876953125 61.669287109375006 -86.47991943359375Q63.259252929687506 -85.199951171875 63.259252929687506 -82.80001220703126Q63.259252929687506 -79.1801025390625 60.299328613281254 -76.86016845703125Q57.339404296875 -74.540234375 50.67958984375 -74.540234375H41.87923583984375Z M115.36011962890626 -13.039819335937501V-15.6798095703125L113.26020507812501 -16.1998291015625V-66.43975830078125Q113.26020507812501 -72.79993896484375 110.11010131835938 -76.24002685546876Q106.95999755859376 -79.68011474609375 101.43983154296876 -79.68011474609375Q96.5396484375 -79.68011474609375 93.71956787109376 -77.51004638671876Q90.89948730468751 -75.33997802734375 90.89948730468751 -71.7998779296875V-67.339892578125Q90.89948730468751 -61.320019531250004 87.55958251953126 -58.17008666992188Q84.21967773437501 -55.020153808593754 77.89985351562501 -55.020153808593754Q71.86000976562501 -55.020153808593754 69.08008422851563 -57.93010864257813Q66.30015869140625 -60.840063476562506 66.30015869140625 -65.719970703125Q66.30015869140625 -71.9799560546875 70.80010986328125 -77.4599365234375Q75.30006103515626 -82.9399169921875 84.17995605468751 -86.34990234375Q93.05985107421876 -89.7598876953125 106.13968505859376 -89.7598876953125Q122.15948486328125 -89.7598876953125 130.15944824218752 -82.89990234375Q138.15941162109377 -76.0399169921875 138.15941162109377 -63.7999267578125V-19.17958984375Q138.15941162109377 -17.1595458984375 139.04942626953127 -15.76953125Q139.93944091796877 -14.3795166015625 142.13946533203125 -14.3795166015625Q143.35948486328127 -14.3795166015625 144.16949462890625 -14.819525146484375Q144.97950439453126 -15.25953369140625 145.6195068359375 -16.05955810546875Q146.07950439453126 -16.519567871093752 146.62949829101564 -16.869573974609377Q147.17949218750002 -17.219580078125002 147.93948974609376 -17.219580078125002Q149.45946044921877 -17.219580078125002 150.29944458007816 -15.889611816406251Q151.13942871093752 -14.5596435546875 151.13942871093752 -12.619677734375001Q151.13942871093752 -9.03974609375 148.97947387695314 -5.679821777343751Q146.81951904296875 -2.3198974609375003 142.80960083007812 -0.15994873046875013Q138.7996826171875 2.0 133.23979492187502 2.0Q125.33991699218751 2.0 120.35001831054689 -2.159942626953125Q115.36011962890626 -6.31988525390625 115.36011962890626 -13.039819335937501ZM62.780126953125006 -20.099963378906253Q62.780126953125006 -32.639892578125 72.97007446289064 -39.79986572265625Q83.16002197265625 -46.9598388671875 100.71990966796875 -46.9598388671875Q105.31993408203127 -46.9598388671875 109.85999145507813 -46.25982666015625Q114.40004882812501 -45.559814453125 117.56010742187502 -44.279797363281254L115.2201904296875 -35.61995849609375Q112.30010986328125 -36.959973144531254 109.32000732421875 -37.639990234375006Q106.33990478515625 -38.32000732421875 102.77979736328126 -38.32000732421875Q95.8995849609375 -38.32000732421875 91.849462890625 -34.749951171875Q87.79934082031251 -31.17989501953125 87.79934082031251 -24.859777832031252Q87.79934082031251 -18.77967529296875 91.32942504882814 -15.619635009765625Q94.85950927734376 -12.4595947265625 100.51961669921876 -12.4595947265625Q105.45977783203125 -12.4595947265625 109.65992431640626 -14.739678955078125Q113.86007080078126 -17.01976318359375 116.6001953125 -20.779931640625L118.76019287109375 -12.780114746093751Q114.34014892578125 -5.8400634765625 106.25013427734376 -1.9200317382812502Q98.16011962890626 2.0 88.540087890625 2.0Q76.54011230468751 2.0 69.66011962890626 -4.0799804687500005Q62.780126953125006 -10.159960937500001 62.780126953125006 -20.099963378906253Z M181.01942138671876 -48.760009765625Q181.01942138671876 -62.75994873046875 184.50942993164062 -71.83992309570313Q187.99943847656252 -80.9198974609375 193.87944335937502 -85.339892578125Q199.75944824218752 -89.7598876953125 206.97943115234375 -89.7598876953125Q215.07938232421878 -89.7598876953125 219.4893493652344 -84.70994873046875Q223.89931640625002 -79.660009765625 223.89931640625002 -69.82015380859376Q223.89931640625002 -61.440380859375004 220.70939941406252 -57.43048095703125Q217.519482421875 -53.4205810546875 212.39962158203127 -53.4205810546875Q206.95976562500002 -53.4205810546875 204.21983642578127 -56.14052734375Q201.47990722656252 -58.8604736328125 201.47990722656252 -63.760388183593754V-67.14034423828126Q201.47990722656252 -70.0003662109375 200.2598815917969 -71.37037963867188Q199.03985595703125 -72.74039306640626 196.55980224609377 -72.74039306640626Q193.3197021484375 -72.74039306640626 190.56961059570312 -70.15033569335938Q187.81951904296875 -67.5602783203125 186.16945800781252 -62.46016845703126Q184.51939697265627 -57.360058593750004 184.51939697265627 -49.759899902343754ZM183.13945312500002 -82.10000000000001 184.51939697265627 -62.3598876953125V-20.119604492187502Q184.51939697265627 -16.55965576171875 185.61939697265626 -14.679675292968751Q186.71939697265626 -12.79969482421875 189.47940673828126 -12.37969970703125L195.89947509765625 -11.519702148437501Q198.559423828125 -11.119714355468751 199.79940185546877 -9.489752197265625Q201.0393798828125 -7.8597900390625 201.0393798828125 -5.579846191406251Q201.0393798828125 -3.0599121093750004 199.45941772460938 -1.5299560546875002Q197.87945556640625 0.0 194.759521484375 0.0H155.89991455078126Q153.019970703125 0.0 151.410009765625 -1.4699584960937502Q149.800048828125 -2.9399169921875004 149.800048828125 -5.579846191406251Q149.800048828125 -7.67979736328125 150.7400390625 -9.04976806640625Q151.680029296875 -10.41973876953125 153.50001220703126 -11.519702148437501L156.22011718750002 -12.37969970703125Q158.08016357421877 -13.1796875 158.85017700195314 -14.719677734375Q159.6201904296875 -16.25966796875 159.6201904296875 -20.119604492187502V-62.740429687500004Q159.6201904296875 -66.00039062500001 158.83018798828127 -67.34037475585939Q158.04018554687502 -68.68035888671875 156.18017578125 -69.34033203125L152.239990234375 -69.7003173828125Q150.160009765625 -70.6602783203125 149.30001831054688 -71.86025390625Q148.44002685546877 -73.0602294921875 148.44002685546877 -74.88018798828125Q148.44002685546877 -76.94013671875001 149.7299987792969 -78.47009887695313Q151.019970703125 -80.00006103515625 154.1799072265625 -81.180029296875L169.25968017578126 -86.91990966796875Q172.55963134765625 -88.17988281250001 174.68958740234376 -88.70986938476562Q176.81954345703127 -89.23985595703125 178.21951904296876 -89.23985595703125Q180.31949462890626 -89.23985595703125 181.519482421875 -87.71987915039062Q182.71947021484377 -86.19990234375001 183.13945312500002 -82.10000000000001Z M268.57982177734374 -89.71988525390626Q282.09974365234376 -89.71988525390626 292.25969848632815 -83.839892578125Q302.4196533203125 -77.95989990234375 308.0996337890625 -67.61991577148437Q313.7796142578125 -57.279931640625 313.7796142578125 -43.73995361328125Q313.7796142578125 -30.9199462890625 307.94963989257815 -20.5799560546875Q302.1196655273437 -10.2399658203125 291.7497192382813 -4.209979248046875Q281.37977294921876 1.82000732421875 267.699853515625 1.82000732421875Q254.23992919921875 1.82000732421875 244.0499755859375 -4.0599853515625Q233.86002197265626 -9.93997802734375 228.18004150390624 -20.299963378906252Q222.50006103515625 -30.659948730468752 222.50006103515625 -44.159924316406254Q222.50006103515625 -57.079931640625006 228.3300354003906 -67.369921875Q234.160009765625 -77.659912109375 244.5299560546875 -83.68989868164063Q254.89990234375 -89.71988525390626 268.57982177734374 -89.71988525390626ZM275.43984375 -11.499658203125001Q280.8400146484375 -12.63968505859375 284.20014038085935 -17.419775390625002Q287.5602661132813 -22.199865722656252 288.42034301757815 -29.939947509765624Q289.280419921875 -37.680029296875 287.1204467773438 -47.82003173828125Q284.9004638671875 -58.660070800781256 280.9103881835938 -65.380126953125Q276.9203125 -72.10018310546876 271.74016723632815 -74.84021606445313Q266.5600219726563 -77.5802490234375 260.83983154296874 -76.4002197265625Q255.43966064453124 -75.30019531250001 252.07953491210935 -70.52010498046876Q248.7194091796875 -65.74001464843751 247.8893310546875 -57.979931640625004Q247.0592529296875 -50.2198486328125 249.159228515625 -40.079846191406254Q251.439208984375 -29.2998046875 255.419287109375 -22.549749755859374Q259.399365234375 -15.79969482421875 264.5795104980469 -13.0796630859375Q269.75965576171876 -10.35963134765625 275.43984375 -11.499658203125001Z M334.3058323933799 2.1199462890625003Q329.7997192382812 2.1199462890625003 326.2187557822779 -0.13086485147847382Q322.6377923262746 -2.381675992019448 320.5488949424342 -6.044020285929622Q318.4599975585937 -9.706364579839796 318.4599975585937 -14.11964111328125Q318.4599975585937 -18.640662800181996 320.5399475097656 -22.280005472356624Q322.61989746093747 -25.919348144531252 326.2165477405895 -28.069293212890628Q329.81319802024143 -30.21923828125 334.3177845348011 -30.21923828125Q338.9179947277731 -30.21923828125 342.4886482427928 -28.069293212890628Q346.0593017578125 -25.919348144531252 348.11925048828124 -22.28955150951039Q350.17919921875 -18.659754874489526 350.17919921875 -14.133740334432634Q350.17919921875 -9.709807412911644 348.1323652423796 -6.038282230809872Q346.0855312660092 -2.3667570487081004 342.52943849707015 -0.12340537982280009Q338.9733457281311 2.1199462890625003 334.3058323933799 2.1199462890625003Z"/></svg>
